<svg width="38" height="38" viewBox="0 0 38 38" fill="none" xmlns="http://www.w3.org/2000/svg">
<path d="M14.5223 26.6285L12.2819 28.8674L19 35.5854L25.7181 28.8674L23.4777 26.6285L19 31.1078L14.5223 26.6285V26.6285ZM23.4777 11.3715L25.7181 9.1327L19 2.41461L12.2819 9.1327L14.5223 11.3715L19 6.89386L23.4777 11.3715V11.3715Z" fill="#F8F8F8"/>
<path fill-rule="evenodd" clip-rule="evenodd" d="M19 14.25C20.2598 14.25 21.468 14.7504 22.3588 15.6412C23.2496 16.532 23.75 17.7402 23.75 19C23.75 20.2598 23.2496 21.468 22.3588 22.3588C21.468 23.2496 20.2598 23.75 19 23.75C17.7402 23.75 16.532 23.2496 15.6412 22.3588C14.7504 21.468 14.25 20.2598 14.25 19C14.25 17.7402 14.7504 16.532 15.6412 15.6412C16.532 14.7504 17.7402 14.25 19 14.25V14.25ZM19 17.4167C19.4199 17.4167 19.8227 17.5835 20.1196 17.8804C20.4165 18.1773 20.5833 18.5801 20.5833 19C20.5833 19.4199 20.4165 19.8227 20.1196 20.1196C19.8227 20.4165 19.4199 20.5833 19 20.5833C18.5801 20.5833 18.1773 20.4165 17.8804 20.1196C17.5835 19.8227 17.4167 19.4199 17.4167 19C17.4167 18.5801 17.5835 18.1773 17.8804 17.8804C18.1773 17.5835 18.5801 17.4167 19 17.4167V17.4167Z" fill="#F8F8F8"/>
</svg>
